{
  "accessors": [
    {
      "bufferView": 2,
      "componentType": 5126,
      "count": 33991,
      "max": [
        0.971393346786499,
        5.064959526062012,
        3.649531364440918
      ],
      "min": [
        -0.971393346786499,
        -0.009052040055394173,
        -2.6917734146118164
      ],
      "type": "VEC3"
    },
    {
      "bufferView": 2,
      "byteOffset": 407892,
      "componentType": 5126,
      "count": 33991,
      "max": [
        0.9999622106552124,
        0.9999992847442627,
        0.9999936819076538
      ],
      "min": [
        -0.9999622106552124,
        -0.9999924898147583,
        -0.9998757243156433
      ],
      "type": "VEC3"
    },
    {
      "bufferView": 1,
      "componentType": 5126,
      "count": 33991,
      "max": [
        0.995551586151123,
        0.9962142109870911
      ],
      "min": [
        0.00667959451675415,
        0.005463361740112305
      ],
      "type": "VEC2"
    },
    {
      "bufferView": 1,
      "byteOffset": 271928,
      "componentType": 5126,
      "count": 33991,
      "max": [
        0.995551586151123,
        0.9962142109870911
      ],
      "min": [
        0.00667959451675415,
        0.005463361740112305
      ],
      "type": "VEC2"
    },
    {
      "bufferView": 1,
      "byteOffset": 543856,
      "componentType": 5126,
      "count": 33991,
      "max": [
        0.995551586151123,
        0.9962142109870911
      ],
      "min": [
        0.00667959451675415,
        0.005463361740112305
      ],
      "type": "VEC2"
    },
    {
      "bufferView": 0,
      "componentType": 5125,
      "count": 182706,
      "type": "SCALAR"
    }
  ],
  "asset": {
    "extras": {
      "author": "neighbor (https://sketchfab.com/kylekip)",
      "license": "CC-BY-4.0 (http://creativecommons.org/licenses/by/4.0/)",
      "source": "https://sketchfab.com/3d-models/ram-d3172a9322724088aca792c01293cf04",
      "title": "ram"
    },
    "generator": "Sketchfab-14.87.0",
    "version": "2.0"
  },
  "bufferViews": [
    {
      "buffer": 0,
      "byteLength": 730824,
      "name": "floatBufferViews",
      "target": 34963
    },
    {
      "buffer": 0,
      "byteLength": 815784,
      "byteOffset": 730824,
      "byteStride": 8,
      "name": "floatBufferViews",
      "target": 34962
    },
    {
      "buffer": 0,
      "byteLength": 815784,
      "byteOffset": 1546608,
      "byteStride": 12,
      "name": "floatBufferViews",
      "target": 34962
    }
  ],
  "buffers": [
    {
      "byteLength": 2362392,
      "uri": "scene.bin"
    }
  ],
  "extensionsRequired": [
    "KHR_materials_pbrSpecularGlossiness"
  ],
  "extensionsUsed": [
    "KHR_materials_pbrSpecularGlossiness"
  ],
  "images": [
    {
      "uri": "textures/material_diffuse.png"
    },
    {
      "uri": "textures/material_specularGlossiness.png"
    }
  ],
  "materials": [
    {
      "doubleSided": true,
      "extensions": {
        "KHR_materials_pbrSpecularGlossiness": {
          "diffuseFactor": [
            1.0,
            1.0,
            1.0,
            1.0
          ],
          "diffuseTexture": {
            "index": 0
          },
          "glossinessFactor": 1.0,
          "specularFactor": [
            1.0,
            1.0,
            1.0
          ],
          "specularGlossinessTexture": {
            "index": 1
          }
        }
      },
      "name": "material"
    }
  ],
  "meshes": [
    {
      "name": "Object_0",
      "primitives": [
        {
          "attributes": {
            "NORMAL": 1,
            "POSITION": 0,
            "TEXCOORD_0": 2,
            "TEXCOORD_1": 3,
            "TEXCOORD_2": 4
          },
          "indices": 5,
          "material": 0,
          "mode": 4
        }
      ]
    }
  ],
  "nodes": [
    {
      "children": [
        1
      ],
      "matrix": [
        1.0,
        0.0,
        0.0,
        0.0,
        0.0,
        2.220446049250313e-16,
        -1.0,
        0.0,
        0.0,
        1.0,
        2.220446049250313e-16,
        0.0,
        0.0,
        0.0,
        0.0,
        1.0
      ],
      "name": "Sketchfab_model"
    },
    {
      "children": [
        2
      ],
      "name": "root"
    },
    {
      "children": [
        3
      ],
      "matrix": [
        1.0,
        0.0,
        0.0,
        0.0,
        0.0,
        2.220446049250313e-16,
        1.0,
        0.0,
        0.0,
        -1.0,
        2.220446049250313e-16,
        0.0,
        0.0,
        0.0,
        0.0,
        1.0
      ],
      "name": "GLTF_SceneRootNode"
    },
    {
      "children": [
        4
      ],
      "name": "root_0"
    },
    {
      "children": [
        5
      ],
      "matrix": [
        0.1009063571691513,
        0.0,
        0.0,
        0.0,
        0.0,
        0.1009063571691513,
        0.0,
        0.0,
        0.0,
        0.0,
        0.1009063571691513,
        0.0,
        -4.958965149626238e-08,
        -0.2550865709781647,
        0.27161705493927,
        1.0
      ],
      "name": "node_id85_1"
    },
    {
      "mesh": 0,
      "name": "Object_5"
    }
  ],
  "samplers": [
    {
      "magFilter": 9729,
      "minFilter": 9987,
      "wrapS": 10497,
      "wrapT": 10497
    }
  ],
  "scene": 0,
  "scenes": [
    {
      "name": "Sketchfab_Scene",
      "nodes": [
        0
      ]
    }
  ],
  "textures": [
    {
      "sampler": 0,
      "source": 0
    },
    {
      "sampler": 0,
      "source": 1
    }
  ]
}
