{
  "accessors": [
    {
      "bufferView": 2,
      "componentType": 5126,
      "count": 370,
      "max": [
        16.77426528930664,
        4.737657070159912,
        54.828399658203125
      ],
      "min": [
        -17.91593360900879,
        -10.000702857971191,
        -0.20774200558662415
      ],
      "type": "VEC3"
    },
    {
      "bufferView": 2,
      "byteOffset": 4440,
      "componentType": 5126,
      "count": 370,
      "max": [
        0.997734010219574,
        0.996736466884613,
        0.8628193140029907
      ],
      "min": [
        -0.9993616342544556,
        -0.9786430597305298,
        -0.9847680926322937
      ],
      "type": "VEC3"
    },
    {
      "bufferView": 1,
      "componentType": 5126,
      "count": 370,
      "max": [
        1.9946999549865723,
        -0.011500000022351742
      ],
      "min": [
        -0.9476000070571899,
        -1.9472999572753906
      ],
      "type": "VEC2"
    },
    {
      "bufferView": 0,
      "componentType": 5125,
      "count": 1530,
      "type": "SCALAR"
    },
    {
      "bufferView": 2,
      "byteOffset": 8880,
      "componentType": 5126,
      "count": 2,
      "max": [
        -8.585006713867188,
        -2.915173053741455,
        15.970797538757324
      ],
      "min": [
        -12.372634887695313,
        -5.740161895751953,
        12.352599143981934
      ],
      "type": "VEC3"
    },
    {
      "bufferView": 1,
      "byteOffset": 2960,
      "componentType": 5126,
      "count": 2,
      "max": [
        0.0,
        0.0
      ],
      "min": [
        0.0,
        0.0
      ],
      "type": "VEC2"
    },
    {
      "bufferView": 0,
      "byteOffset": 6120,
      "componentType": 5125,
      "count": 2,
      "type": "SCALAR"
    },
    {
      "bufferView": 2,
      "byteOffset": 8904,
      "componentType": 5126,
      "count": 389,
      "max": [
        10.434944152832031,
        -2.2366600036621094,
        73.52140045166016
      ],
      "min": [
        -9.262065887451172,
        -19.53160858154297,
        -0.20774200558662415
      ],
      "type": "VEC3"
    },
    {
      "bufferView": 2,
      "byteOffset": 13572,
      "componentType": 5126,
      "count": 389,
      "max": [
        0.9965654015541077,
        0.7202146649360657,
        0.9982470273971558
      ],
      "min": [
        -0.994618833065033,
        -0.9942622184753418,
        -0.9912890195846558
      ],
      "type": "VEC3"
    },
    {
      "bufferView": 1,
      "byteOffset": 2976,
      "componentType": 5126,
      "count": 389,
      "max": [
        2.3013999462127686,
        1.957800030708313
      ],
      "min": [
        -0.8816999793052673,
        0.009399999864399433
      ],
      "type": "VEC2"
    },
    {
      "bufferView": 0,
      "byteOffset": 6128,
      "componentType": 5125,
      "count": 1809,
      "type": "SCALAR"
    },
    {
      "bufferView": 2,
      "byteOffset": 18240,
      "componentType": 5126,
      "count": 342,
      "max": [
        10.011272430419922,
        33.15029525756836,
        57.29159927368164
      ],
      "min": [
        -9.121635437011719,
        -10.428906440734863,
        -0.1453319936990738
      ],
      "type": "VEC3"
    },
    {
      "bufferView": 2,
      "byteOffset": 22344,
      "componentType": 5126,
      "count": 342,
      "max": [
        0.9999066591262817,
        0.9997400641441345,
        0.9950178861618042
      ],
      "min": [
        -0.9996835589408875,
        -0.9981148838996887,
        -0.9949465990066528
      ],
      "type": "VEC3"
    },
    {
      "bufferView": 1,
      "byteOffset": 6088,
      "componentType": 5126,
      "count": 342,
      "max": [
        2.9921000003814697,
        1.2680000066757202
      ],
      "min": [
        0.15360000729560852,
        -0.05249999836087227
      ],
      "type": "VEC2"
    },
    {
      "bufferView": 0,
      "byteOffset": 13364,
      "componentType": 5125,
      "count": 1518,
      "type": "SCALAR"
    },
    {
      "bufferView": 2,
      "byteOffset": 26448,
      "componentType": 5126,
      "count": 185,
      "max": [
        21.67806625366211,
        36.26300048828125,
        80.03319549560547
      ],
      "min": [
        -21.097333908081055,
        -13.96671199798584,
        8.275545120239258
      ],
      "type": "VEC3"
    },
    {
      "bufferView": 2,
      "byteOffset": 28668,
      "componentType": 5126,
      "count": 185,
      "max": [
        0.9696231484413147,
        0.9787434935569763,
        0.9983965158462524
      ],
      "min": [
        -0.9930416345596313,
        -0.9999792575836182,
        -0.9947642683982849
      ],
      "type": "VEC3"
    },
    {
      "bufferView": 1,
      "byteOffset": 8824,
      "componentType": 5126,
      "count": 185,
      "max": [
        1.861199975013733,
        0.9919000267982483
      ],
      "min": [
        -0.5394999980926514,
        -0.0007999999797903001
      ],
      "type": "VEC2"
    },
    {
      "bufferView": 0,
      "byteOffset": 19436,
      "componentType": 5125,
      "count": 912,
      "type": "SCALAR"
    },
    {
      "bufferView": 2,
      "byteOffset": 30888,
      "componentType": 5126,
      "count": 30,
      "max": [
        9.476234436035156,
        -3.991811990737915,
        77.76819610595703
      ],
      "min": [
        -9.283306121826172,
        -7.498621940612793,
        71.13800048828125
      ],
      "type": "VEC3"
    },
    {
      "bufferView": 2,
      "byteOffset": 31248,
      "componentType": 5126,
      "count": 30,
      "max": [
        0.9886811375617981,
        0.09869811683893204,
        0.9907346367835999
      ],
      "min": [
        -0.9927678108215332,
        -0.990051805973053,
        -0.6666142344474792
      ],
      "type": "VEC3"
    },
    {
      "bufferView": 1,
      "byteOffset": 10304,
      "componentType": 5126,
      "count": 30,
      "max": [
        0.932200014591217,
        0.9225000143051147
      ],
      "min": [
        0.14000000059604645,
        0.16949999332427979
      ],
      "type": "VEC2"
    },
    {
      "bufferView": 0,
      "byteOffset": 23084,
      "componentType": 5125,
      "count": 114,
      "type": "SCALAR"
    }
  ],
  "asset": {
    "extras": {
      "author": "guinavarro.al (https://sketchfab.com/guinavarro.al)",
      "license": "CC-BY-4.0 (http://creativecommons.org/licenses/by/4.0/)",
      "source": "https://sketchfab.com/3d-models/alex-madagascar-40204a12cfc4432bb96c1b6347d1c107",
      "title": "Alex - Madagascar"
    },
    "generator": "Sketchfab-15.5.0",
    "version": "2.0"
  },
  "bufferViews": [
    {
      "buffer": 0,
      "byteLength": 23540,
      "name": "floatBufferViews",
      "target": 34963
    },
    {
      "buffer": 0,
      "byteLength": 10544,
      "byteOffset": 23540,
      "byteStride": 8,
      "name": "floatBufferViews",
      "target": 34962
    },
    {
      "buffer": 0,
      "byteLength": 31608,
      "byteOffset": 34084,
      "byteStride": 12,
      "name": "floatBufferViews",
      "target": 34962
    }
  ],
  "buffers": [
    {
      "byteLength": 65692,
      "uri": "scene.bin"
    }
  ],
  "images": [
    {
      "uri": "textures/mat0_baseColor.png"
    },
    {
      "uri": "textures/mat0.001_baseColor.png"
    },
    {
      "uri": "textures/mat0.002_baseColor.png"
    },
    {
      "uri": "textures/mat0.003_baseColor.png"
    },
    {
      "uri": "textures/mat0.004_baseColor.png"
    }
  ],
  "materials": [
    {
      "doubleSided": true,
      "name": "mat0",
      "pbrMetallicRoughness": {
        "baseColorTexture": {
          "index": 0
        },
        "metallicFactor": 0.0,
        "roughnessFactor": 0.8063508326896291
      }
    },
    {
      "doubleSided": true,
      "name": "mat0.001",
      "pbrMetallicRoughness": {
        "baseColorTexture": {
          "index": 1
        },
        "metallicFactor": 0.0,
        "roughnessFactor": 0.8063508326896291
      }
    },
    {
      "doubleSided": true,
      "name": "mat0.002",
      "pbrMetallicRoughness": {
        "baseColorTexture": {
          "index": 2
        },
        "metallicFactor": 0.0,
        "roughnessFactor": 0.8063508326896291
      }
    },
    {
      "doubleSided": true,
      "name": "mat0.003",
      "pbrMetallicRoughness": {
        "baseColorTexture": {
          "index": 3
        },
        "metallicFactor": 0.0,
        "roughnessFactor": 0.8063508326896291
      }
    },
    {
      "doubleSided": true,
      "name": "mat0.004",
      "pbrMetallicRoughness": {
        "baseColorTexture": {
          "index": 4
        },
        "metallicFactor": 0.0,
        "roughnessFactor": 0.8063508326896291
      }
    }
  ],
  "meshes": [
    {
      "name": "Object_0",
      "primitives": [
        {
          "attributes": {
            "NORMAL": 1,
            "POSITION": 0,
            "TEXCOORD_0": 2
          },
          "indices": 3,
          "material": 0,
          "mode": 4
        }
      ]
    },
    {
      "name": "Object_1",
      "primitives": [
        {
          "attributes": {
            "POSITION": 4,
            "TEXCOORD_0": 5
          },
          "indices": 6,
          "material": 1,
          "mode": 1
        }
      ]
    },
    {
      "name": "Object_2",
      "primitives": [
        {
          "attributes": {
            "NORMAL": 8,
            "POSITION": 7,
            "TEXCOORD_0": 9
          },
          "indices": 10,
          "material": 1,
          "mode": 4
        }
      ]
    },
    {
      "name": "Object_3",
      "primitives": [
        {
          "attributes": {
            "NORMAL": 12,
            "POSITION": 11,
            "TEXCOORD_0": 13
          },
          "indices": 14,
          "material": 2,
          "mode": 4
        }
      ]
    },
    {
      "name": "Object_4",
      "primitives": [
        {
          "attributes": {
            "NORMAL": 16,
            "POSITION": 15,
            "TEXCOORD_0": 17
          },
          "indices": 18,
          "material": 3,
          "mode": 4
        }
      ]
    },
    {
      "name": "Object_5",
      "primitives": [
        {
          "attributes": {
            "NORMAL": 20,
            "POSITION": 19,
            "TEXCOORD_0": 21
          },
          "indices": 22,
          "material": 4,
          "mode": 4
        }
      ]
    }
  ],
  "nodes": [
    {
      "children": [
        1
      ],
      "matrix": [
        1.0,
        0.0,
        0.0,
        0.0,
        0.0,
        2.220446049250313e-16,
        -1.0,
        0.0,
        0.0,
        1.0,
        2.220446049250313e-16,
        0.0,
        0.0,
        0.0,
        0.0,
        1.0
      ],
      "name": "Sketchfab_model"
    },
    {
      "children": [
        2,
        3,
        4,
        5,
        6,
        7
      ],
      "name": "Alex_mesh.obj.cleaner.materialmerger.gles"
    },
    {
      "mesh": 0,
      "name": "Object_2"
    },
    {
      "mesh": 1,
      "name": "Object_3"
    },
    {
      "mesh": 2,
      "name": "Object_4"
    },
    {
      "mesh": 3,
      "name": "Object_5"
    },
    {
      "mesh": 4,
      "name": "Object_6"
    },
    {
      "mesh": 5,
      "name": "Object_7"
    }
  ],
  "samplers": [
    {
      "magFilter": 9729,
      "minFilter": 9987,
      "wrapS": 10497,
      "wrapT": 10497
    }
  ],
  "scene": 0,
  "scenes": [
    {
      "name": "Sketchfab_Scene",
      "nodes": [
        0
      ]
    }
  ],
  "textures": [
    {
      "sampler": 0,
      "source": 0
    },
    {
      "sampler": 0,
      "source": 1
    },
    {
      "sampler": 0,
      "source": 2
    },
    {
      "sampler": 0,
      "source": 3
    },
    {
      "sampler": 0,
      "source": 4
    }
  ]
}
